<?xml version="1.0" encoding="UTF-8"?>
<!DOCTYPE svg PUBLIC "-//W3C//DTD SVG 1.1//EN" "http://www.w3.org/Graphics/SVG/1.1/DTD/svg11.dtd">
<svg version="1.1" xmlns="http://www.w3.org/2000/svg" xmlns:xlink="http://www.w3.org/1999/xlink" x="0" y="0" width="237" height="150" viewBox="0, 0, 237, 150">
  <g id="Layer_1">
    <g>
      <path d="M24.479,12.458 L90.297,12.458 C97.113,12.458 102.638,17.983 102.638,24.799 L102.638,90.617 C102.638,97.433 97.113,102.958 90.297,102.958 L24.479,102.958 C17.663,102.958 12.138,97.433 12.138,90.617 L12.138,24.799 C12.138,17.983 17.663,12.458 24.479,12.458 z" fill="#000000"/>
      <path d="M58.201,29.021 Q59.826,35.771 63.201,41.083 Q66.576,46.396 75.232,54.239 Q83.888,62.083 86.201,66.271 Q88.513,70.458 88.513,74.771 Q88.513,80.771 84.513,84.771 Q80.513,88.771 74.763,88.771 Q69.888,88.771 65.919,85.739 Q61.951,82.708 58.888,76.896 Q58.951,86.083 61.294,91.489 Q63.638,96.896 68.794,99.989 Q73.951,103.083 82.513,103.646 L82.951,105.958 L33.388,105.958 L33.888,103.646 Q45.388,103.646 51.732,96.927 Q58.076,90.208 57.826,76.896 Q55.013,82.833 50.857,85.802 Q46.701,88.771 41.451,88.771 Q35.826,88.771 31.794,84.708 Q27.763,80.646 27.763,74.958 Q27.763,70.396 29.826,66.708 Q32.638,61.583 38.951,56.396 Q45.263,51.208 48.263,47.833 Q52.826,42.646 54.919,38.583 Q57.013,34.521 58.201,29.021 z" fill="#FFFFFF"/>
      <path d="M120.654,88.322 Q122.446,88.706 124.494,88.962 Q126.286,89.218 128.27,89.41 Q130.254,89.602 132.302,89.602 Q135.886,89.602 139.278,88.77 Q142.67,87.938 145.358,86.018 Q148.046,84.098 149.646,81.09 Q151.246,78.082 151.246,73.73 Q151.246,70.018 149.39,66.69 Q147.534,63.362 144.654,60.29 Q141.774,57.218 138.51,54.402 Q135.246,51.586 132.366,48.706 Q129.486,45.826 127.63,42.946 Q125.774,40.066 125.774,36.994 Q125.774,32.386 128.718,29.89 Q131.662,27.394 138.19,27.394 Q139.214,27.394 140.302,27.458 Q141.39,27.522 142.414,27.65 Q143.438,27.778 144.462,27.778 L144.462,24.45 Q143.566,24.45 142.542,24.322 Q141.646,24.194 140.558,24.13 Q139.47,24.066 138.318,24.066 Q131.406,24.066 126.926,27.202 Q122.446,30.338 122.446,36.994 Q122.446,40.578 124.302,43.714 Q126.158,46.85 129.038,49.858 Q131.918,52.866 135.182,55.682 Q138.446,58.498 141.326,61.378 Q144.206,64.258 146.062,67.33 Q147.918,70.402 147.918,73.73 Q147.918,79.874 143.758,83.074 Q139.598,86.274 132.302,86.274 Q127.95,86.274 124.366,85.634 Q122.446,85.378 120.654,84.994 z M109.902,72.962 Q112.718,73.858 115.79,74.37 Q118.35,75.01 121.614,75.394 Q124.878,75.778 128.206,75.778 Q134.094,75.778 134.094,71.426 Q134.094,69.762 132.302,68.034 Q130.51,66.306 127.758,64.194 Q125.006,62.082 121.87,59.522 Q118.734,56.962 115.982,53.634 Q113.23,50.306 111.438,46.146 Q109.646,41.986 109.646,36.61 Q109.646,30.594 111.822,25.986 Q113.998,21.378 117.838,18.306 Q121.678,15.234 126.862,13.634 Q132.046,12.034 137.934,12.034 Q141.006,12.034 144.078,12.354 Q147.15,12.674 149.582,12.93 Q152.398,13.314 155.086,13.698 L155.086,37.634 Q154.062,37.506 152.782,37.378 Q151.758,37.25 150.478,37.122 Q149.198,36.994 147.79,36.994 Q147.022,36.994 145.87,37.058 Q144.718,37.122 143.694,37.378 Q142.67,37.634 141.902,38.274 Q141.134,38.914 141.134,40.066 Q141.134,41.09 142.862,42.626 Q144.59,44.162 147.086,46.21 Q149.582,48.258 152.59,50.946 Q155.598,53.634 158.094,57.09 Q160.59,60.546 162.318,64.898 Q164.046,69.25 164.046,74.626 Q164.046,80.258 162.254,85.186 Q160.462,90.114 156.686,93.762 Q152.91,97.41 147.022,99.522 Q141.134,101.634 133.07,101.634 Q128.206,101.634 124.046,101.186 Q119.886,100.738 116.686,100.098 Q112.974,99.458 109.902,98.562 z" fill="#000000"/>
      <path d="M181.254,88.322 Q183.046,88.706 185.094,88.962 Q186.886,89.218 188.87,89.41 Q190.854,89.602 192.902,89.602 Q196.486,89.602 199.878,88.77 Q203.27,87.938 205.958,86.018 Q208.646,84.098 210.246,81.09 Q211.846,78.082 211.846,73.73 Q211.846,70.018 209.99,66.69 Q208.134,63.362 205.254,60.29 Q202.374,57.218 199.11,54.402 Q195.846,51.586 192.966,48.706 Q190.086,45.826 188.23,42.946 Q186.374,40.066 186.374,36.994 Q186.374,32.386 189.318,29.89 Q192.262,27.394 198.79,27.394 Q199.814,27.394 200.902,27.458 Q201.99,27.522 203.014,27.65 Q204.038,27.778 205.062,27.778 L205.062,24.45 Q204.166,24.45 203.142,24.322 Q202.246,24.194 201.158,24.13 Q200.07,24.066 198.918,24.066 Q192.006,24.066 187.526,27.202 Q183.046,30.338 183.046,36.994 Q183.046,40.578 184.902,43.714 Q186.758,46.85 189.638,49.858 Q192.518,52.866 195.782,55.682 Q199.046,58.498 201.926,61.378 Q204.806,64.258 206.662,67.33 Q208.518,70.402 208.518,73.73 Q208.518,79.874 204.358,83.074 Q200.198,86.274 192.902,86.274 Q188.55,86.274 184.966,85.634 Q183.046,85.378 181.254,84.994 z M170.502,72.962 Q173.318,73.858 176.39,74.37 Q178.95,75.01 182.214,75.394 Q185.478,75.778 188.806,75.778 Q194.694,75.778 194.694,71.426 Q194.694,69.762 192.902,68.034 Q191.11,66.306 188.358,64.194 Q185.606,62.082 182.47,59.522 Q179.334,56.962 176.582,53.634 Q173.83,50.306 172.038,46.146 Q170.246,41.986 170.246,36.61 Q170.246,30.594 172.422,25.986 Q174.598,21.378 178.438,18.306 Q182.278,15.234 187.462,13.634 Q192.646,12.034 198.534,12.034 Q201.606,12.034 204.678,12.354 Q207.75,12.674 210.182,12.93 Q212.998,13.314 215.686,13.698 L215.686,37.634 Q214.662,37.506 213.382,37.378 Q212.358,37.25 211.078,37.122 Q209.798,36.994 208.39,36.994 Q207.622,36.994 206.47,37.058 Q205.318,37.122 204.294,37.378 Q203.27,37.634 202.502,38.274 Q201.734,38.914 201.734,40.066 Q201.734,41.09 203.462,42.626 Q205.19,44.162 207.686,46.21 Q210.182,48.258 213.19,50.946 Q216.198,53.634 218.694,57.09 Q221.19,60.546 222.918,64.898 Q224.646,69.25 224.646,74.626 Q224.646,80.258 222.854,85.186 Q221.062,90.114 217.286,93.762 Q213.51,97.41 207.622,99.522 Q201.734,101.634 193.67,101.634 Q188.806,101.634 184.646,101.186 Q180.486,100.738 177.286,100.098 Q173.574,99.458 170.502,98.562 z" fill="#000000"/>
      <path d="M14.226,113.446 L22.218,113.446 L22.218,131.158 L28.842,131.158 L28.842,137.458 L14.226,137.458 z M26.826,134.578 L26.826,133.714 L18.762,133.714 L18.762,116.326 L17.826,116.326 L17.826,134.578 z" fill="#000000"/>
      <path d="M45.102,113.446 L53.238,113.446 L53.238,137.458 L45.102,137.458 z M49.638,134.578 L49.638,116.326 L48.702,116.326 L48.702,134.578 z" fill="#000000"/>
      <path d="M70.758,113.446 L77.094,113.446 L83.358,122.662 L89.586,113.446 L95.922,113.446 L95.922,137.458 L88.254,137.458 L88.254,128.818 L83.358,136.018 L78.426,128.818 L78.426,137.458 L70.758,137.458 z M75.294,134.578 L75.294,118.054 L83.358,129.79 L91.386,118.054 L91.386,134.578 L92.322,134.578 L92.322,116.326 L91.386,116.326 L83.358,128.17 L75.294,116.326 L74.358,116.326 L74.358,134.578 z" fill="#000000"/>
      <path d="M113.442,113.446 L121.578,113.446 L121.578,137.458 L113.442,137.458 z M117.978,134.578 L117.978,116.326 L117.042,116.326 L117.042,134.578 z" fill="#000000"/>
      <path d="M142.266,119.746 L137.838,119.746 L137.838,113.446 L154.614,113.446 L154.614,119.746 L150.186,119.746 L150.186,137.458 L142.266,137.458 z M146.694,134.578 L146.694,117.19 L151.842,117.19 L151.842,116.326 L140.61,116.326 L140.61,117.19 L145.758,117.19 L145.758,134.578 z" fill="#000000"/>
      <path d="M170.874,113.446 L185.022,113.446 L185.022,119.746 L178.542,119.746 L178.542,122.41 L184.914,122.41 L184.914,128.386 L178.542,128.386 L178.542,131.158 L185.274,131.158 L185.274,137.458 L170.874,137.458 z M182.61,134.578 L182.61,133.714 L175.41,133.714 L175.41,125.83 L182.25,125.83 L182.25,124.966 L175.41,124.966 L175.41,117.19 L182.61,117.19 L182.61,116.326 L174.474,116.326 L174.474,134.578 z" fill="#000000"/>
      <path d="M202.434,137.458 L202.434,113.446 L209.094,113.446 Q212.478,113.446 215.124,114.202 Q217.77,114.958 219.588,116.47 Q221.406,117.982 222.36,120.232 Q223.314,122.482 223.314,125.434 Q223.314,128.386 222.36,130.636 Q221.406,132.886 219.588,134.398 Q217.77,135.91 215.124,136.684 Q212.478,137.458 209.094,137.458 z M206.97,133.714 L206.97,117.19 L209.094,117.19 Q213.666,117.19 216.204,119.26 Q218.742,121.33 218.742,125.434 Q218.742,129.538 216.204,131.626 Q213.666,133.714 209.094,133.714 z M206.034,134.578 L209.094,134.578 Q214.35,134.578 217.032,132.184 Q219.714,129.79 219.714,125.434 Q219.714,121.078 217.032,118.702 Q214.35,116.326 209.094,116.326 L206.034,116.326 z M210.102,130.618 Q212.802,130.618 214.278,129.34 Q215.754,128.062 215.754,125.434 Q215.754,122.806 214.278,121.546 Q212.802,120.286 210.102,120.286 z" fill="#000000"/>
    </g>
  </g>
</svg>
